<?xml version="1.0" encoding="iso-8859-1"?>
<!-- Generator: Adobe Illustrator 19.0.0, SVG Export Plug-In . SVG Version: 6.00 Build 0)  -->
<svg version="1.1" id="Layer_1" xmlns="http://www.w3.org/2000/svg" xmlns:xlink="http://www.w3.org/1999/xlink" x="0px" y="0px"
	 viewBox="0 0 512 512" style="enable-background:new 0 0 512 512;" xml:space="preserve">
<polyline style="fill:#2BA5B1;" points="121.062,473.977 32.953,473.977 32.953,139.671 379.352,139.671 379.352,473.977 
	141.341,473.977 "/>
<g>
	<polyline style="fill:#00649D;" points="141.341,473.977 356.323,473.977 346.184,504.396 66.121,504.396 55.981,473.977 
		121.062,473.977 	"/>
	<path style="fill:#00649D;" d="M379.352,389.394v-40.554h41.905c9.504,0,17.236-7.732,17.236-17.236v-49.56
		c0-9.504-7.732-17.236-17.236-17.236h-41.905v-40.554h41.905c31.916,0,57.79,25.874,57.79,57.79v49.56
		c0,31.916-25.874,57.79-57.79,57.79H379.352z"/>
</g>
<g>
	<path style="fill:#53180F;" d="M115.413,109.252c0-10.044,3.741-14.732,8.478-20.67c5.257-6.588,11.799-14.787,11.799-30.154
		s-6.542-23.567-11.799-30.154c-4.737-5.936-8.478-10.625-8.478-20.67V0h-15.208v7.604c0,15.368,6.542,23.567,11.799,30.154
		c4.737,5.936,8.478,10.625,8.478,20.67s-3.741,14.732-8.478,20.67c-5.257,6.588-11.799,14.786-11.799,30.154v7.604h15.208
		C115.413,116.856,115.413,109.252,115.413,109.252z"/>
	<path style="fill:#53180F;" d="M174.217,109.252c0-10.044,3.741-14.732,8.478-20.67c5.257-6.588,11.799-14.787,11.799-30.154
		s-6.542-23.567-11.799-30.154c-4.737-5.936-8.478-10.625-8.478-20.67V0h-15.208v7.604c0,15.368,6.542,23.567,11.799,30.154
		c4.737,5.936,8.478,10.625,8.478,20.67s-3.741,14.732-8.478,20.67c-5.257,6.588-11.799,14.786-11.799,30.154v7.604h15.208V109.252z
		"/>
	<path style="fill:#53180F;" d="M233.019,109.252c0-10.044,3.741-14.733,8.478-20.67c5.257-6.588,11.798-14.787,11.798-30.154
		s-6.542-23.567-11.798-30.154c-4.737-5.936-8.478-10.625-8.478-20.67V0h-15.208v7.604c0,15.368,6.542,23.567,11.798,30.154
		c4.737,5.936,8.478,10.625,8.478,20.67s-3.741,14.733-8.478,20.67c-5.257,6.588-11.798,14.786-11.798,30.154v7.604h15.208V109.252z
		"/>
	<path style="fill:#53180F;" d="M291.822,109.252c0-10.044,3.741-14.732,8.478-20.67c5.257-6.588,11.799-14.787,11.799-30.154
		s-6.542-23.567-11.799-30.154c-4.737-5.936-8.478-10.625-8.478-20.67V0h-15.208v7.604c0,15.368,6.542,23.567,11.799,30.154
		c4.737,5.936,8.478,10.625,8.478,20.67s-3.741,14.732-8.478,20.67c-5.257,6.588-11.799,14.786-11.799,30.154v7.604h15.208V109.252z
		"/>
	<path style="fill:#53180F;" d="M421.257,216.65h-34.301v-84.583H25.349v349.515H50.5L60.64,512h291.025l10.139-30.419h25.153
		v-84.583h34.301c36.059,0,65.394-29.336,65.394-65.394v-49.56C486.651,245.986,457.315,216.65,421.257,216.65z M371.749,466.373
		h-4.877h-225.53h-0.001v15.208h0.001h204.431l-5.069,15.211H71.602l-5.07-15.211h54.531l0,0v-15.208l0,0H45.431h-4.875v-288.68
		h243.661v-15.208H40.556v-15.211h331.192v69.376v55.762v68.823v55.762L371.749,466.373L371.749,466.373z M386.956,272.412h34.301
		c5.311,0,9.632,4.321,9.632,9.632v49.56c0,5.311-4.321,9.632-9.632,9.632h-34.301V272.412z M471.444,331.604
		c0,27.672-22.514,50.186-50.186,50.186h-34.301v-25.347h34.301c13.697,0,24.84-11.143,24.84-24.84v-49.56
		c0-13.696-11.142-24.84-24.84-24.84h-34.301v-25.347h34.301c27.672,0,50.186,22.513,50.186,50.186V331.604z"/>
</g>
<g>
</g>
<g>
</g>
<g>
</g>
<g>
</g>
<g>
</g>
<g>
</g>
<g>
</g>
<g>
</g>
<g>
</g>
<g>
</g>
<g>
</g>
<g>
</g>
<g>
</g>
<g>
</g>
<g>
</g>
</svg>
