<?xml version="1.0" encoding="iso-8859-1"?>
<!-- Generator: Adobe Illustrator 19.0.0, SVG Export Plug-In . SVG Version: 6.00 Build 0)  -->
<svg version="1.1" id="Layer_1" xmlns="http://www.w3.org/2000/svg" xmlns:xlink="http://www.w3.org/1999/xlink" x="0px" y="0px"
	 viewBox="0 0 512 512" style="enable-background:new 0 0 512 512;" xml:space="preserve">
<path style="fill:#2BA5B1;" d="M74.181,171.44c-0.74,8.214-1.131,16.331-1.131,24.288c0,55.594,18.347,108.11,51.66,147.872
	c34.698,41.415,81.326,64.223,131.29,64.223s96.593-22.808,131.29-64.223c33.313-39.762,51.66-92.278,51.66-147.872
	c0-7.957-0.391-16.075-1.131-24.288L74.181,171.44L74.181,171.44z"/>
<path style="fill:#FFE285;" d="M268.588,171.44c0-48.587-39.387-87.974-87.974-87.974c-48.587,0-87.975,39.387-87.975,87.974
	H268.588z"/>
<path style="fill:#08AA6E;" d="M419.361,171.44c0-48.587-39.389-87.974-87.975-87.974c-31.99,0-59.989,17.08-75.386,42.615
	c7.987,13.247,12.588,28.764,12.588,45.359H419.361z"/>
<path style="fill:#D53349;" d="M331.386,83.465c14.386,0,27.95,3.473,39.938,9.596c4.166-5.73,6.631-12.777,6.631-20.402
	c0-19.179-15.548-34.727-34.729-34.727c-19.179,0-34.727,15.548-34.727,34.727c0,4.66,0.923,9.101,2.588,13.159
	C317.604,84.279,324.4,83.465,331.386,83.465z"/>
<path style="fill:#C66500;" d="M311.088,85.819c-1.666-4.058-2.588-8.5-2.588-13.159c0-12.942,7.085-24.224,17.585-30.196
	C310.028,21.291,284.624,7.604,256,7.604c-44.757,0-81.678,33.43-87.227,76.677c3.874-0.523,7.822-0.816,11.841-0.816
	c31.99,0,59.989,17.08,75.386,42.615c12.484-20.701,33.249-35.844,57.709-40.836C312.83,85.424,311.956,85.614,311.088,85.819z"/>
<path style="fill:#2BA5B1;" d="M256,407.822c-5.566,0-11.09-0.299-16.561-0.86v67.015h33.121v-67.015
	C267.088,407.523,261.566,407.822,256,407.822z"/>
<g>
	<path style="fill:#53180F;" d="M445.392,170.757l-0.624-6.921h-18.106c-2.457-31.055-19.822-57.977-44.92-73.596
		c2.511-5.478,3.816-11.435,3.816-17.58c0-23.341-18.99-42.331-42.333-42.331c-5.269,0-10.314,0.976-14.972,2.742
		C310.073,11.981,284.074,0,256,0c-46.009,0-85.371,33.006-93.849,77.658c-41.475,8.15-73.415,43.209-76.814,86.178H67.232
		l-0.624,6.921c-0.772,8.555-1.163,16.956-1.163,24.971c0,57.378,18.977,111.627,53.436,152.754
		c30.524,36.433,69.974,59.052,112.953,65.223v52.668h-61.224v15.208h61.224h48.329h61.226v-15.208h-61.226v-52.667
		c42.982-6.171,82.431-28.79,112.955-65.224c34.458-41.127,53.436-95.377,53.436-152.754
		C446.554,187.712,446.164,179.311,445.392,170.757z M411.401,163.836H275.89c-0.004-0.046-0.009-0.09-0.013-0.135
		c-0.328-4.093-0.919-8.112-1.75-12.044c-0.003-0.018-0.007-0.034-0.011-0.052c-0.162-0.766-0.334-1.528-0.514-2.286
		c-0.022-0.093-0.046-0.186-0.068-0.278c-0.162-0.673-0.33-1.343-0.506-2.009c-0.051-0.191-0.103-0.378-0.153-0.568
		c-0.152-0.56-0.307-1.117-0.468-1.674c-0.086-0.298-0.176-0.594-0.267-0.891c-0.13-0.432-0.261-0.862-0.396-1.291
		c-0.133-0.418-0.27-0.833-0.407-1.249c-0.097-0.292-0.194-0.584-0.294-0.875c-0.186-0.542-0.376-1.083-0.572-1.622
		c-0.053-0.147-0.105-0.292-0.159-0.438c-1.526-4.147-3.334-8.194-5.429-12.103c11.55-16.979,29.293-29.042,49.333-33.405
		c0.226-0.05,0.451-0.103,0.679-0.15l0.341-0.071l0,0c0.268-0.055,0.537-0.102,0.806-0.153l0,0c0.542-0.104,1.086-0.208,1.631-0.302
		l0,0c0.33-0.058,0.661-0.106,0.992-0.159v0.001c0.497-0.081,0.996-0.156,1.497-0.228c0.38-0.053,0.76-0.101,1.141-0.148
		c0.457-0.057,0.918-0.111,1.376-0.159v-0.001c0.379-0.041,0.758-0.079,1.139-0.115c0.451-0.043,0.905-0.079,1.36-0.114
		c0.376-0.028,0.751-0.059,1.127-0.082c0.01,0,0.02,0,0.028-0.001c0.54-0.034,1.084-0.058,1.626-0.081
		c0.299-0.013,0.598-0.028,0.897-0.039c0.841-0.024,1.682-0.042,2.529-0.042c1.057,0,2.107,0.034,3.155,0.075
		c1.169,0.049,2.351,0.118,3.544,0.22c0.033,0.002,0.068,0.004,0.102,0.007c1.333,0.116,2.678,0.265,4.023,0.445l1.237,0.167
		c6.077,0.918,11.936,2.51,17.49,4.712c0.012,0.006,0.024,0.01,0.037,0.015c1.069,0.425,2.123,0.875,3.168,1.343
		c0.175,0.079,0.351,0.16,0.525,0.24c0.968,0.443,1.927,0.899,2.874,1.378c0.056,0.027,0.111,0.055,0.166,0.082
		C391.682,111.953,408.76,135.826,411.401,163.836z M370.351,72.659c0,3.681-0.73,7.257-2.139,10.576
		c-5.64-2.368-11.443-4.165-17.383-5.395v-0.216l-4.751-0.642c-3.735-0.576-7.519-0.927-11.346-1.057c-0.002,0-0.004,0-0.006,0l0,0
		c-0.031-0.001-0.064-0.002-0.096-0.004v-0.002c-0.045-0.002-0.089-0.001-0.134-0.002c-0.179-0.006-0.358-0.016-0.537-0.02
		c-0.04-0.001-0.078-0.004-0.118-0.004c-0.817-0.021-1.634-0.031-2.456-0.031c-1.017,0-2.029,0.019-3.039,0.049l0,0
		c-0.167,0.005-0.334,0.015-0.501,0.021c-0.234,0.008-0.468,0.021-0.703,0.031c-0.096,0.004-0.192,0.009-0.288,0.013
		c-0.179,0.008-0.358,0.02-0.537,0.028c-0.714,0.036-1.427,0.079-2.137,0.132c-0.225,0.017-0.447,0.035-0.671,0.055
		c-1.089,0.087-2.175,0.192-3.253,0.317c-0.054,0.006-0.106,0.011-0.158,0.018c-1.219,0.141-2.431,0.302-3.639,0.489
		c-0.007-0.042-0.015-0.084-0.021-0.126c-0.099-0.624-0.174-1.251-0.228-1.884c-0.011-0.123-0.018-0.245-0.027-0.369
		c-0.047-0.655-0.078-1.313-0.078-1.975c0-0.559,0.022-1.114,0.057-1.668c0.008-0.134,0.02-0.267,0.029-0.399
		c0.035-0.459,0.081-0.917,0.14-1.372c0.012-0.093,0.022-0.187,0.035-0.278c0.653-4.686,2.522-9.092,5.365-12.796
		c0.04-0.053,0.081-0.103,0.121-0.154c0.297-0.381,0.606-0.752,0.923-1.118c0.07-0.08,0.139-0.161,0.209-0.24
		c0.357-0.403,0.726-0.796,1.108-1.177c0.061-0.061,0.124-0.117,0.185-0.176c0.314-0.307,0.637-0.607,0.966-0.9
		c0.141-0.125,0.283-0.247,0.427-0.369c0.284-0.242,0.574-0.479,0.869-0.709c0.131-0.103,0.26-0.208,0.392-0.309
		c0.408-0.307,0.824-0.604,1.252-0.889c0.128-0.085,0.26-0.166,0.388-0.249c0.341-0.219,0.685-0.432,1.036-0.636
		c4.006-2.337,8.657-3.683,13.621-3.683C358.183,45.537,370.351,57.704,370.351,72.659z M256,15.208
		c22.733,0,43.855,9.345,59.043,25.883c-0.081,0.073-0.157,0.151-0.238,0.225c-0.073,0.067-0.144,0.138-0.217,0.205
		c-1.139,1.048-2.212,2.156-3.223,3.315c-0.291,0.333-0.583,0.663-0.864,1.005c-0.122,0.148-0.236,0.302-0.357,0.452
		c-0.341,0.428-0.677,0.858-1.002,1.298c-0.076,0.103-0.147,0.209-0.223,0.314c-0.362,0.499-0.714,1.006-1.053,1.522
		c-0.041,0.062-0.079,0.124-0.12,0.186c-0.37,0.568-0.727,1.146-1.071,1.732c-0.011,0.019-0.022,0.039-0.032,0.058
		c-2.913,4.993-4.836,10.627-5.492,16.641c-0.004,0.038-0.01,0.075-0.014,0.113c-0.069,0.654-0.121,1.313-0.16,1.974
		c-0.006,0.095-0.017,0.191-0.022,0.285c-0.039,0.743-0.061,1.492-0.061,2.246c0,0.681,0.017,1.361,0.049,2.038
		c0.012,0.237,0.035,0.473,0.051,0.711c0.027,0.438,0.054,0.876,0.095,1.313c0.026,0.277,0.065,0.552,0.097,0.827
		c0.046,0.394,0.087,0.788,0.144,1.181c0.041,0.278,0.092,0.555,0.139,0.831c0.054,0.325,0.1,0.654,0.161,0.978
		c-17.953,5.824-33.807,16.898-45.624,32.126C239.973,92,216.493,78.989,190.435,76.363c-0.051-0.005-0.102-0.011-0.152-0.016
		c-0.699-0.069-1.399-0.133-2.102-0.188c-0.253-0.02-0.508-0.035-0.762-0.054c-0.553-0.039-1.105-0.077-1.661-0.105
		c-0.447-0.023-0.897-0.04-1.346-0.058c-0.394-0.015-0.788-0.034-1.182-0.045c-0.869-0.023-1.741-0.038-2.616-0.038
		c-0.846,0-1.689,0.012-2.529,0.033C186.94,40.708,218.909,15.208,256,15.208z M168.544,91.986l1.246-0.168
		c1.596-0.215,3.184-0.375,4.758-0.498c0.407-0.03,0.814-0.064,1.224-0.088c0.538-0.033,1.075-0.062,1.608-0.084
		c1.075-0.043,2.149-0.077,3.233-0.077c1.182,0,2.356,0.033,3.527,0.084c0.245,0.011,0.491,0.022,0.737,0.035
		c33.312,1.751,61.313,23.873,71.742,54.116c0.057,0.162,0.107,0.326,0.163,0.489c0.301,0.893,0.584,1.795,0.856,2.701
		c0.085,0.289,0.173,0.576,0.255,0.867c0.295,1.029,0.573,2.064,0.826,3.11c0.054,0.22,0.099,0.442,0.15,0.663
		c0.203,0.867,0.391,1.741,0.567,2.619c0.082,0.416,0.159,0.833,0.234,1.25c0.136,0.74,0.259,1.485,0.373,2.233
		c0.057,0.369,0.119,0.737,0.17,1.108c0.146,1.053,0.272,2.114,0.376,3.18c0.01,0.104,0.017,0.208,0.026,0.311H100.599
		C104.066,127.077,132.396,97.453,168.544,91.986z M264.955,466.373h-17.913v-51.191c1.476,0.077,2.955,0.141,4.438,0.179
		c0.76,0.021,1.519,0.022,2.277,0.032c0.747,0.01,1.493,0.031,2.243,0.031c0.762,0,1.522-0.021,2.283-0.032
		c0.744-0.01,1.487-0.011,2.234-0.031c1.483-0.039,2.962-0.102,4.439-0.179V466.373z M381.461,338.716
		c-29.058,34.684-66.782,55.74-107.679,60.477l-1.2,0.124c-0.304,0.031-0.609,0.061-0.912,0.091c-1.267,0.129-2.535,0.243-3.8,0.342
		c-0.076,0.006-0.152,0.011-0.23,0.017c-1.223,0.093-2.443,0.172-3.66,0.235c-0.314,0.017-0.63,0.026-0.945,0.042
		c-0.993,0.046-1.985,0.089-2.972,0.116c-1.353,0.035-2.706,0.059-4.064,0.059s-2.712-0.022-4.065-0.059
		c-0.982-0.026-1.971-0.069-2.959-0.116c-0.319-0.014-0.64-0.024-0.958-0.042c-1.211-0.064-2.426-0.143-3.642-0.234
		c-0.085-0.007-0.17-0.012-0.255-0.019c-1.253-0.097-2.51-0.21-3.766-0.338c-0.373-0.039-0.746-0.072-1.12-0.113l-1.007-0.104
		c-40.901-4.735-78.628-25.791-107.689-60.478c-32.17-38.395-49.885-89.176-49.885-142.988c0-5.395,0.189-10.982,0.562-16.684h3.82
		h175.95h15.208h150.773h3.82c0.373,5.702,0.562,11.29,0.562,16.684c0,0.993-0.018,1.98-0.03,2.971H239.272v15.208h191.384
		C427.13,260.897,409.982,304.676,381.461,338.716z"/>
	<rect x="144.84" y="198.697" style="fill:#53180F;" width="74.154" height="15.208"/>
	<rect x="135.746" y="496.792" style="fill:#53180F;" width="240.508" height="15.208"/>
</g>
<g>
</g>
<g>
</g>
<g>
</g>
<g>
</g>
<g>
</g>
<g>
</g>
<g>
</g>
<g>
</g>
<g>
</g>
<g>
</g>
<g>
</g>
<g>
</g>
<g>
</g>
<g>
</g>
<g>
</g>
</svg>
