<?xml version="1.0" encoding="iso-8859-1"?>
<!-- Generator: Adobe Illustrator 19.0.0, SVG Export Plug-In . SVG Version: 6.00 Build 0)  -->
<svg version="1.1" id="Layer_1" xmlns="http://www.w3.org/2000/svg" xmlns:xlink="http://www.w3.org/1999/xlink" x="0px" y="0px"
	 viewBox="0 0 511.999 511.999" style="enable-background:new 0 0 511.999 511.999;" xml:space="preserve">
<path style="fill:#C66500;" d="M491.1,20.912c-17.7-17.701-46.393-17.699-64.094,0c-17.701,17.701-17.703,46.395-0.002,64.095
	c17.7,17.701,46.396,17.699,64.097,0C508.799,67.307,508.802,38.613,491.1,20.912z M470.822,64.727c-6.5,6.5-17.037,6.5-23.537,0
	c-6.5-6.499-6.499-17.037,0-23.536c6.5-6.5,17.037-6.5,23.536,0C477.322,47.692,477.322,58.229,470.822,64.727z"/>
<path style="fill:#FFE285;" d="M316.474,123.82l-7.26-7.259c-12.314-12.318-12.317-32.286,0-44.605l0,0
	c12.319-12.317,32.288-12.317,44.606,0l86.235,86.236c12.317,12.317,12.317,32.285,0,44.602l0,0
	c-12.318,12.318-32.286,12.318-44.605,0l-64.575-64.573"/>
<g>
	<path style="fill:#D53349;" d="M109.086,311.62c7.662-7.662,20.086-7.662,27.749,0.001l63.557,63.557
		c7.662,7.662,7.661,20.087-0.001,27.749l0,0c-7.659,7.659-20.085,7.659-27.744,0l-63.559-63.559
		C101.425,331.704,101.425,319.282,109.086,311.62L109.086,311.62z"/>
	<path style="fill:#D53349;" d="M81.338,339.368c7.662-7.662,20.087-7.663,27.75,0l63.559,63.559
		c7.659,7.659,7.659,20.084-0.001,27.747l0,0c-7.662,7.662-20.088,7.662-27.749,0L81.34,367.117
		C73.677,359.454,73.677,347.029,81.338,339.368L81.338,339.368z"/>
</g>
<circle style="fill:#08AA6E;" cx="58.108" cy="453.904" r="35.739"/>
<path style="fill:#F6A230;" d="M248.267,220.83l74.327,74.328c29.201-29.2,29.203-76.539,0-105.741
	c-29.201-29.201-76.539-29.198-105.739,0.001l0,0l17.011,17.011"/>
<g>
	<path style="fill:#53180F;" d="M459.052,28.68c-6.485,0-12.581,2.525-17.168,7.111c-4.585,4.586-7.11,10.683-7.11,17.168
		c-0.001,6.485,2.524,12.582,7.11,17.168c4.587,4.586,10.683,7.111,17.169,7.111c6.485,0,12.581-2.525,17.167-7.111
		c4.587-4.586,7.112-10.683,7.112-17.168c-0.001-6.485-2.526-12.582-7.112-17.167C471.635,31.205,465.538,28.68,459.052,28.68z
		 M465.421,59.328c-1.701,1.701-3.963,2.639-6.368,2.639c-2.406,0-4.667-0.938-6.37-2.639c-1.7-1.7-2.637-3.963-2.637-6.368
		s0.937-4.667,2.638-6.368c1.701-1.701,3.963-2.639,6.368-2.639s4.667,0.937,6.369,2.639c1.701,1.701,2.639,3.964,2.639,6.369
		C468.06,55.365,467.123,57.627,465.421,59.328z"/>
	<path style="fill:#53180F;" d="M496.501,15.512C486.498,5.509,473.199,0,459.054,0c-14.146,0-27.445,5.508-37.448,15.511
		c-10.003,10.004-15.512,23.304-15.513,37.447c0,11.567,3.687,22.565,10.499,31.66l-19.653,19.655l-37.718-37.718
		c-15.273-15.273-40.128-15.273-55.406,0.001c-15.271,15.273-15.271,40.127,0.001,55.404l7.26,7.259l10.798-10.8l-7.259-7.258
		c-9.318-9.321-9.318-24.487-0.001-33.805c9.323-9.319,24.488-9.319,33.806,0l86.235,86.236c9.32,9.319,9.32,24.483,0,33.801
		c-9.319,9.321-24.485,9.321-33.805,0l-64.574-64.573l-10.8,10.8l16.057,16.058l-19.196,19.197
		c-32.341-26.873-80.573-25.167-110.88,5.141l-5.401,5.401l22.411,22.412l10.8-10.8l-11.306-11.306
		c26.331-20.953,64.886-19.254,89.235,5.094c12.681,12.681,19.665,29.539,19.665,47.471c0,15.361-5.126,29.934-14.566,41.768
		l-68.625-68.627l-10.8,10.8l16.057,16.058l-30.171,30.171c-2.233-3.922-2.835-7.669-3.523-12.028
		c-1.166-7.386-2.619-16.577-12.552-26.512c-9.935-9.934-19.125-11.386-26.511-12.551c-6.521-1.029-11.672-1.843-18.092-8.265
		l-10.8,10.798c9.934,9.936,19.125,11.387,26.511,12.552c6.521,1.03,11.672,1.844,18.094,8.266s7.235,11.573,8.266,18.094
		c1.166,7.386,2.619,16.577,12.552,26.51c9.933,9.933,19.123,11.385,26.508,12.55c6.521,1.03,11.672,1.843,18.092,8.263
		c6.422,6.422,7.234,11.572,8.264,18.093c1.167,7.386,2.617,16.577,12.551,26.51l10.798-10.801
		c-6.422-6.421-7.234-11.57-8.264-18.09c-1.167-7.386-2.617-16.577-12.55-26.511c-9.933-9.932-19.123-11.383-26.509-12.549
		c-4.361-0.688-8.11-1.289-12.035-3.527l30.173-30.173l52.869,52.869l5.4-5.4c15.566-15.565,24.139-36.258,24.139-58.271
		c0-19.445-6.699-37.856-18.991-52.617l19.193-19.193l37.718,37.716c7.638,7.637,17.67,11.456,27.702,11.456
		c10.032,0,20.065-3.819,27.702-11.456c15.274-15.275,15.274-40.127,0-55.402l-37.718-37.718l19.654-19.654
		c9.095,6.81,20.091,10.499,31.659,10.5c0.002,0,0.003,0,0.004,0c14.144,0,27.443-5.509,37.446-15.512
		C517.149,69.758,517.149,36.16,496.501,15.512z M485.702,79.607c-7.119,7.118-16.582,11.039-26.647,11.039h-0.002
		c-10.068-0.001-19.532-3.921-26.649-11.039c-7.118-7.117-11.038-16.58-11.038-26.646c0.001-10.066,3.922-19.53,11.04-26.648
		c7.12-7.118,16.585-11.039,26.649-11.039c10.065,0,19.528,3.921,26.646,11.039C500.394,41.004,500.394,64.913,485.702,79.607z"/>
	<path style="fill:#53180F;" d="M248.359,329.078c-9.933-9.935-19.124-11.386-26.51-12.551c-6.521-1.029-11.671-1.843-18.092-8.263
		c-6.422-6.423-7.234-11.573-8.265-18.094c-1.166-7.386-2.618-16.577-12.552-26.511c-9.934-9.934-19.125-11.386-26.511-12.551
		c-6.522-1.031-11.673-1.844-18.094-8.268l-10.8,10.8c9.935,9.934,19.126,11.387,26.512,12.552
		c6.522,1.03,11.673,1.844,18.094,8.267c6.423,6.422,7.236,11.572,8.266,18.093c0.935,5.916,2.063,12.992,7.575,20.68
		l-19.367,19.367l-26.379-26.379c-5.149-5.149-11.994-7.984-19.276-7.984c-7.28,0-14.126,2.835-19.275,7.984
		c-5.441,5.441-8.088,12.629-7.957,19.777c-0.171-0.004-0.342-0.013-0.515-0.013c-7.281,0-14.127,2.836-19.276,7.984
		c-5.148,5.149-7.983,11.993-7.983,19.276c0.001,7.28,2.837,14.127,7.985,19.275l26.378,26.377l-19.418,19.419
		c-7.222-5.053-15.794-7.784-24.793-7.784c-11.587,0-22.481,4.513-30.675,12.705c-8.192,8.193-12.705,19.086-12.706,30.673
		c0,8.999,2.733,17.573,7.786,24.794L0.012,501.199l10.801,10.8l22.499-22.498c7.221,5.053,15.794,7.785,24.792,7.785
		c11.587,0,22.481-4.513,30.676-12.706c15.068-15.071,16.698-38.556,4.914-55.463l19.424-19.424l26.379,26.379
		c5.148,5.149,11.992,7.985,19.275,7.985c7.281,0,14.127-2.836,19.276-7.985c5.441-5.442,8.089-12.631,7.957-19.779
		c0.172,0.004,0.343,0.013,0.515,0.013c7.28,0,14.126-2.834,19.273-7.981c10.628-10.629,10.628-27.921,0.001-38.549l-26.379-26.379
		l19.366-19.367c7.689,5.519,14.769,6.647,20.687,7.582c6.521,1.029,11.671,1.842,18.091,8.264
		c6.422,6.422,7.234,11.571,8.264,18.092c1.166,7.385,2.616,16.575,12.547,26.508l10.8-10.798c-6.42-6.422-7.232-11.571-8.262-18.09
		C259.742,348.203,258.291,339.01,248.359,329.078z M77.981,473.781c-5.31,5.309-12.368,8.232-19.876,8.232
		c-7.507,0-14.565-2.923-19.874-8.233c-5.308-5.308-8.231-12.365-8.231-19.872c0.001-7.508,2.924-14.566,8.233-19.874
		c5.309-5.31,12.367-8.233,19.875-8.233c7.507,0,14.564,2.923,19.872,8.231C88.937,444.99,88.937,462.822,77.981,473.781z
		 M167.247,425.274c-2.263,2.264-5.273,3.511-8.475,3.511c-3.202,0-6.211-1.247-8.473-3.511l-63.559-63.557
		c-2.263-2.263-3.51-5.273-3.511-8.474c0-3.202,1.247-6.211,3.51-8.473c2.263-2.264,5.273-3.511,8.474-3.511
		c3.202,0,6.212,1.247,8.474,3.511l63.559,63.559C171.919,412.998,171.918,420.601,167.247,425.274z M194.992,397.527
		c-2.262,2.262-5.27,3.508-8.471,3.508c-3.201,0-6.21-1.246-8.471-3.508l-63.559-63.559c-4.674-4.673-4.675-12.276-0.002-16.948
		c2.263-2.264,5.272-3.51,8.473-3.51s6.211,1.247,8.475,3.511l63.557,63.557C199.665,385.25,199.664,392.854,194.992,397.527z"/>
</g>
<g>
</g>
<g>
</g>
<g>
</g>
<g>
</g>
<g>
</g>
<g>
</g>
<g>
</g>
<g>
</g>
<g>
</g>
<g>
</g>
<g>
</g>
<g>
</g>
<g>
</g>
<g>
</g>
<g>
</g>
</svg>
