<?xml version="1.0" encoding="iso-8859-1"?>
<!-- Generator: Adobe Illustrator 19.0.0, SVG Export Plug-In . SVG Version: 6.00 Build 0)  -->
<svg version="1.1" id="Layer_1" xmlns="http://www.w3.org/2000/svg" xmlns:xlink="http://www.w3.org/1999/xlink" x="0px" y="0px"
	 viewBox="0 0 511.997 511.997" style="enable-background:new 0 0 511.997 511.997;" xml:space="preserve">
<path style="fill:#63A2AE;" d="M149.45,376.472h338.454c0-128.077-103.828-231.904-231.904-231.904
	c-128.077,0-231.904,103.827-231.904,231.904h104.461"/>
<circle style="fill:#386499;" cx="256.004" cy="124.369" r="20.192"/>
<g>
	<path style="fill:#491E17;" d="M128.557,368.637H32.063c1.943-56.913,25.026-110.138,65.495-150.607
		c42.322-42.322,98.59-65.628,158.441-65.628s116.119,23.307,158.441,65.628c40.469,40.469,63.553,93.694,65.495,150.607H149.45
		v15.669h346.289v-7.835c0-64.037-24.937-124.241-70.219-169.521c-39.455-39.455-90.243-63.458-145.022-68.982
		c2.244-4.028,3.529-8.663,3.529-13.594c0-15.454-12.573-28.027-28.027-28.027c-15.454,0-28.027,12.573-28.027,28.027
		c0,4.931,1.284,9.564,3.529,13.594c-54.779,5.524-105.567,29.527-145.023,68.982C41.197,252.232,16.26,312.435,16.26,376.472v7.835
		h112.296L128.557,368.637L128.557,368.637z M243.642,124.374c0-6.814,5.544-12.358,12.358-12.358
		c6.814,0,12.358,5.544,12.358,12.358c0,6.814-5.544,12.358-12.358,12.358C249.185,136.733,243.642,131.189,243.642,124.374z"/>
	<path style="fill:#491E17;" d="M461.86,343.914c-4.418-28.038-14.376-54.46-29.598-78.531l-13.244,8.376
		c14.074,22.254,23.28,46.679,27.364,72.593L461.86,343.914z"/>
	<path style="fill:#491E17;" d="M255.999,168.071v15.669c59.008,0,114.005,26.591,150.887,72.954l12.262-9.755
		C379.277,196.817,319.811,168.071,255.999,168.071z"/>
	<rect y="399.98" style="fill:#491E17;" width="511.997" height="15.669"/>
</g>
<g>
</g>
<g>
</g>
<g>
</g>
<g>
</g>
<g>
</g>
<g>
</g>
<g>
</g>
<g>
</g>
<g>
</g>
<g>
</g>
<g>
</g>
<g>
</g>
<g>
</g>
<g>
</g>
<g>
</g>
</svg>
